<svg xmlns="http://www.w3.org/2000/svg" viewBox="0 0 1280 720" role="img" aria-label="Sinan Cloudmap product demo video poster">
  <defs>
    <linearGradient id="poster-bg" x1="0" y1="0" x2="1" y2="1">
      <stop offset="0" stop-color="#eef3ff"/>
      <stop offset="0.54" stop-color="#e9fbf7"/>
      <stop offset="1" stop-color="#fff7e7"/>
    </linearGradient>
    <linearGradient id="poster-mark" x1="410" y1="190" x2="810" y2="515" gradientUnits="userSpaceOnUse">
      <stop stop-color="#4457e8"/>
      <stop offset="1" stop-color="#18c5b1"/>
    </linearGradient>
    <filter id="soft-shadow" x="-20%" y="-20%" width="140%" height="140%">
      <feDropShadow dx="0" dy="22" stdDeviation="24" flood-color="#264e68" flood-opacity="0.14"/>
    </filter>
  </defs>
  <rect width="1280" height="720" fill="url(#poster-bg)"/>
  <circle cx="216" cy="152" r="88" fill="none" stroke="#4457e8" stroke-opacity="0.16" stroke-width="4"/>
  <circle cx="1090" cy="620" r="136" fill="none" stroke="#18c5b1" stroke-opacity="0.16" stroke-width="4"/>
  <path d="M132 500 C260 318 430 296 570 382 S832 560 1010 300" fill="none" stroke="#4457e8" stroke-width="7" stroke-linecap="round" stroke-dasharray="18 24" opacity="0.86"/>
  <path d="M184 536 C385 658 684 642 912 482" fill="none" stroke="#264e68" stroke-width="9" stroke-linecap="round" opacity="0.88"/>
  <path d="M385 548 L640 198 L895 548" fill="none" stroke="url(#poster-mark)" stroke-width="44" stroke-linecap="round" stroke-linejoin="round"/>
  <g filter="url(#soft-shadow)">
    <rect x="118" y="420" width="258" height="68" rx="34" fill="#ffffff" fill-opacity="0.92"/>
    <circle cx="158" cy="454" r="11" fill="#4457e8"/>
    <text x="184" y="463" font-family="Arial, sans-serif" font-size="27" font-weight="700" fill="#101928">Market Signal</text>
    <rect x="828" y="188" width="260" height="68" rx="34" fill="#ffffff" fill-opacity="0.92"/>
    <circle cx="868" cy="222" r="11" fill="#f2a51a"/>
    <text x="894" y="231" font-family="Arial, sans-serif" font-size="27" font-weight="700" fill="#101928">Sales Action</text>
    <rect x="798" y="500" width="258" height="68" rx="34" fill="#ffffff" fill-opacity="0.92"/>
    <circle cx="838" cy="534" r="11" fill="#18c5b1"/>
    <text x="864" y="543" font-family="Arial, sans-serif" font-size="27" font-weight="700" fill="#101928">AI Visibility</text>
  </g>
</svg>
